<?xml version="1.0" ?><!DOCTYPE svg  PUBLIC '-//W3C//DTD SVG 1.1//EN'  'http://www.w3.org/Graphics/SVG/1.1/DTD/svg11.dtd'><svg enable-background="new 0 0 1024 1024" height="1024px" id="Layer_1" version="1.1" viewBox="0 0 1024 1024" width="1024px" xml:space="preserve" xmlns="http://www.w3.org/2000/svg" xmlns:xlink="http://www.w3.org/1999/xlink"><g><g><g><g><path d="M934.314,249.037v600.728c0,46.61-37.818,84.4-84.463,84.4H174.148c-46.645,0-84.463-37.79-84.463-84.4       v-601.93L934.314,249.037z" fill="#B3B3B3"/><g><path d="M904.314,249.037c0,25.168,0,50.337,0,75.505c0,58.042,0,116.084,0,174.127        c0,64.722,0,129.444,0,194.166c0,45.207,0,90.414,0,135.621c0,10.722,0.59,21.757-0.726,32.42        c0.357-2.658,0.715-5.316,1.071-7.976c-1.064,7.613-3.073,14.955-6.042,22.046c1.008-2.389,2.016-4.777,3.024-7.166        c-1.948,4.453-4.221,8.704-6.841,12.799c-0.708,1.106-1.467,2.18-2.226,3.251c-3.095,4.373,4.854-6.08,1.497-1.91        c-1.644,2.042-3.427,3.967-5.25,5.846c-1.825,1.881-3.778,3.633-5.768,5.335c-1.689,1.446-5.966,4.54,1.958-1.437        c-1.049,0.791-2.133,1.532-3.217,2.273c-4.365,2.984-9.066,5.447-13.905,7.561c2.389-1.008,4.777-2.017,7.166-3.024        c-7.097,2.967-14.443,4.974-22.062,6.038c2.658-0.357,5.316-0.715,7.975-1.071c-8.848,1.089-17.895,0.725-26.797,0.725        c-15.942,0-31.884,0-47.826,0c-53.79,0-107.58,0-161.37,0c-65.715,0-131.43,0-197.145,0c-56.901,0-113.802,0-170.702,0        c-27.348,0-54.695,0-82.042,0c-4.036,0-8.052-0.231-12.06-0.725c2.658,0.356,5.317,0.714,7.975,1.071        c-7.618-1.064-14.965-3.071-22.062-6.038c2.389,1.008,4.778,2.017,7.167,3.024c-4.456-1.946-8.711-4.217-12.808-6.835        c-1.107-0.708-2.181-1.467-3.254-2.225c-4.375-3.092,6.081,4.854,1.907,1.499c-2.043-1.642-3.969-3.423-5.85-5.246        c-1.882-1.823-3.634-3.774-5.339-5.763c-1.446-1.688-4.549-5.962,1.435,1.961c-0.792-1.048-1.534-2.132-2.275-3.215        c-2.985-4.361-5.451-9.059-7.566-13.895c1.008,2.389,2.017,4.777,3.024,7.166c-2.969-7.091-4.977-14.433-6.042-22.046        c0.357,2.659,0.714,5.317,1.072,7.976c-1.162-9.423-0.726-19.104-0.726-28.582c0-17.532,0-35.063,0-52.596        c0-57.25,0-114.5,0-171.75c0-65.032,0-130.065,0-195.098c0-46.655,0-93.311,0-139.966c0-8.35,0-16.7,0-25.05        c-10,10-20,20-30,30c18.832,0.027,37.663,0.054,56.494,0.081c47.635,0.068,95.27,0.135,142.905,0.203        c63.149,0.09,126.299,0.18,189.448,0.27c65.376,0.093,130.751,0.187,196.127,0.279c54.312,0.077,108.625,0.155,162.938,0.232        c29.96,0.042,59.921,0.085,89.882,0.128c2.278,0.003,4.558,0.006,6.836,0.01c16.354,0.023,30-13.664,30-30        c0-16.371-13.646-29.977-30-30c-18.831-0.027-37.663-0.054-56.494-0.081c-47.635-0.068-95.27-0.135-142.904-0.203        c-63.149-0.09-126.3-0.18-189.449-0.27c-65.375-0.093-130.75-0.187-196.126-0.279c-54.312-0.077-108.625-0.155-162.938-0.232        c-29.961-0.042-59.921-0.085-89.882-0.128c-2.279-0.003-4.557-0.006-6.836-0.01c-16.354-0.023-30,13.664-30,30        c0,25.168,0,50.335,0,75.503c0,58.063,0,116.127,0,174.191c0,64.8,0,129.6,0,194.399c0,45.376,0,90.752,0,136.128        c0,7.229,0,14.459,0,21.688c0,28.298,10.766,54.08,28.652,75.609c18.612,22.404,46.349,34.595,74.691,38.086        c8.849,1.089,17.895,0.725,26.797,0.725c15.942,0,31.884,0,47.826,0c53.79,0,107.58,0,161.37,0c65.715,0,131.43,0,197.145,0        c56.901,0,113.802,0,170.703,0c27.348,0,54.694,0,82.042,0c43.673,0,86.78-25.5,104.539-66.102        c6.938-15.862,10.864-32.004,10.864-49.45c0-3.339,0-6.678,0-10.016c0-40.203,0-80.406,0-120.609        c0-63.516,0-127.032,0-190.548c0-60.635,0-121.269,0-181.904c0-31.559,0-63.118,0-94.677c0-0.607,0-1.215,0-1.823        c0-16.354-13.646-30-30-30S904.314,232.684,904.314,249.037z" fill="#B3B3B3"/></g></g><g><g><path d="M849.852,90.564H174.148c-46.645,0-84.463,37.79-84.463,84.4v73.27l844.629,1.202v-74.472        C934.314,128.354,896.496,90.564,849.852,90.564z M300.843,211.541c-23.322,0-42.232-18.895-42.232-42.2        c0-23.305,18.91-42.2,42.232-42.2c23.322,0,42.231,18.895,42.231,42.2C343.074,192.646,324.165,211.541,300.843,211.541z         M723.158,211.541c-23.324,0-42.232-18.895-42.232-42.2c0-23.305,18.908-42.2,42.232-42.2c23.322,0,42.23,18.895,42.23,42.2        C765.389,192.646,746.48,211.541,723.158,211.541z" fill="#ED1C24"/><g><path d="M723.158,181.541c-1.85-0.03-3.668-0.146-5.506-0.355c2.658,0.357,5.317,0.714,7.976,1.072         c-3.565-0.522-6.963-1.412-10.324-2.709c2.389,1.008,4.777,2.016,7.166,3.024c-2.429-1.027-4.727-2.216-6.967-3.606         c-1.95-1.209-5.773-4.544,1.88,1.621c-1.011-0.814-1.943-1.718-2.874-2.62c-0.932-0.903-1.778-1.889-2.622-2.872         c6.153,7.167,2.977,3.926,1.618,1.883c-1.451-2.183-2.589-4.554-3.608-6.962c1.009,2.389,2.017,4.778,3.024,7.167         c-1.298-3.358-2.188-6.754-2.711-10.316c0.357,2.659,0.714,5.317,1.071,7.975c-0.42-3.69-0.42-7.312,0-11.002         c-0.357,2.658-0.714,5.317-1.071,7.975c0.522-3.562,1.413-6.958,2.711-10.316c-1.008,2.389-2.016,4.777-3.024,7.166         c1.028-2.427,2.218-4.723,3.608-6.961c1.213-1.951,4.55-5.762-1.618,1.883c0.814-1.01,1.72-1.942,2.622-2.872         c0.903-0.931,1.89-1.777,2.874-2.62c-7.176,6.151-3.922,2.977-1.88,1.621c2.185-1.45,4.558-2.587,6.967-3.606         c-2.389,1.008-4.777,2.016-7.166,3.024c3.361-1.298,6.759-2.187,10.324-2.709c-2.658,0.357-5.317,0.714-7.976,1.072         c3.693-0.42,7.318-0.42,11.011,0c-2.658-0.357-5.316-0.714-7.975-1.072c3.564,0.522,6.963,1.412,10.323,2.709         c-2.389-1.008-4.777-2.016-7.166-3.024c2.429,1.027,4.726,2.216,6.967,3.606c1.949,1.209,5.773,4.544-1.881-1.621         c1.011,0.814,1.944,1.718,2.874,2.62c0.932,0.903,1.778,1.889,2.623,2.872c-6.154-7.167-2.978-3.926-1.619-1.883         c1.451,2.182,2.589,4.554,3.608,6.961c-1.009-2.389-2.017-4.777-3.024-7.166c1.298,3.358,2.188,6.753,2.711,10.316         c-0.357-2.658-0.714-5.317-1.071-7.975c0.42,3.69,0.42,7.312,0,11.002c0.357-2.658,0.714-5.316,1.071-7.975         c-0.522,3.562-1.413,6.958-2.711,10.316c1.008-2.389,2.016-4.778,3.024-7.167c-1.027,2.427-2.218,4.723-3.608,6.962         c-1.212,1.951-4.55,5.762,1.619-1.883c-0.815,1.01-1.72,1.942-2.623,2.872c-0.903,0.931-1.89,1.777-2.874,2.62         c7.176-6.152,3.922-2.977,1.881-1.621c-2.185,1.45-4.558,2.587-6.967,3.606c2.389-1.008,4.777-2.017,7.166-3.024         c-3.36,1.298-6.759,2.187-10.323,2.709c2.658-0.357,5.316-0.714,7.975-1.072         C726.826,181.395,725.007,181.511,723.158,181.541c-16.349,0.265-30,13.446-30,30c0,16.153,13.646,30.265,30,30         c33.066-0.535,64.596-23.948,70.606-57.38c3.228-17.954,0.759-35.72-8.46-51.634c-8.961-15.469-23.244-25.419-39.574-31.725         c-14.061-5.43-32.411-4.917-46.377,0.475c-16.44,6.348-30.064,16.957-38.998,32.379         c-16.62,28.688-10.566,69.084,15.611,90.172c13.771,11.094,29.308,17.423,47.191,17.713c16.354,0.265,30-13.847,30-30         C753.158,194.987,739.507,181.806,723.158,181.541z" fill="#ED1C24"/><path d="M300.843,181.541c-1.849-0.03-3.668-0.146-5.505-0.355c2.659,0.357,5.317,0.714,7.976,1.072         c-3.565-0.522-6.963-1.412-10.324-2.709c2.389,1.008,4.778,2.016,7.167,3.024c-2.429-1.027-4.726-2.216-6.967-3.606         c-1.95-1.209-5.774-4.544,1.88,1.621c-1.011-0.814-1.943-1.718-2.874-2.62c-0.932-0.903-1.778-1.889-2.623-2.872         c6.154,7.167,2.977,3.926,1.619,1.883c-1.451-2.183-2.589-4.554-3.608-6.962c1.008,2.389,2.016,4.778,3.024,7.167         c-1.299-3.358-2.189-6.754-2.711-10.316c0.357,2.659,0.714,5.317,1.071,7.975c-0.42-3.69-0.42-7.312,0-11.002         c-0.357,2.658-0.714,5.317-1.071,7.975c0.522-3.562,1.413-6.958,2.711-10.316c-1.008,2.389-2.016,4.777-3.024,7.166         c1.028-2.427,2.217-4.723,3.608-6.961c1.212-1.951,4.55-5.762-1.619,1.883c0.815-1.01,1.72-1.942,2.623-2.872         c0.904-0.931,1.89-1.777,2.874-2.62c-7.176,6.151-3.921,2.977-1.88,1.621c2.184-1.45,4.558-2.587,6.967-3.606         c-2.389,1.008-4.778,2.016-7.167,3.024c3.361-1.298,6.759-2.187,10.324-2.709c-2.659,0.357-5.317,0.714-7.976,1.072         c3.693-0.42,7.318-0.42,11.01,0c-2.658-0.357-5.316-0.714-7.975-1.072c3.565,0.522,6.963,1.412,10.324,2.709         c-2.389-1.008-4.777-2.016-7.166-3.024c2.429,1.027,4.726,2.216,6.967,3.606c1.949,1.209,5.773,4.544-1.88-1.621         c1.011,0.814,1.944,1.718,2.875,2.62c0.932,0.903,1.778,1.889,2.622,2.872c-6.153-7.167-2.977-3.926-1.619-1.883         c1.451,2.182,2.589,4.554,3.608,6.961c-1.008-2.389-2.016-4.777-3.024-7.166c1.299,3.358,2.189,6.753,2.711,10.316         c-0.357-2.658-0.714-5.317-1.071-7.975c0.42,3.69,0.42,7.312,0,11.002c0.357-2.658,0.714-5.316,1.071-7.975         c-0.522,3.562-1.413,6.958-2.711,10.316c1.008-2.389,2.016-4.778,3.024-7.167c-1.028,2.428-2.217,4.723-3.608,6.962         c-1.212,1.951-4.55,5.762,1.619-1.883c-0.815,1.01-1.72,1.942-2.622,2.872c-0.904,0.931-1.891,1.777-2.875,2.62         c7.176-6.151,3.921-2.977,1.88-1.621c-2.185,1.45-4.558,2.587-6.967,3.606c2.389-1.008,4.777-2.017,7.166-3.024         c-3.361,1.298-6.759,2.187-10.324,2.709c2.659-0.357,5.317-0.714,7.975-1.072         C304.511,181.395,302.692,181.511,300.843,181.541c-16.349,0.265-30,13.446-30,30c0,16.153,13.646,30.265,30,30         c33.066-0.535,64.596-23.948,70.607-57.38c3.228-17.954,0.76-35.72-8.459-51.634c-8.962-15.469-23.245-25.419-39.575-31.725         c-14.061-5.429-32.411-4.917-46.377,0.475c-16.44,6.348-30.063,16.957-38.998,32.379         c-16.621,28.688-10.565,69.084,15.612,90.172c13.771,11.094,29.306,17.423,47.19,17.713c16.354,0.265,30-13.847,30-30         C330.843,194.987,317.191,181.806,300.843,181.541z" fill="#ED1C24"/><path d="M849.852,60.564c-22.83,0-45.661,0-68.491,0c-54.665,0-109.33,0-163.995,0         c-65.761,0-131.521,0-197.282,0c-56.117,0-112.233,0-168.351,0c-25.734,0-51.468,0-77.202,0         c-50.738,0-95.256,33.88-110.198,82.05c-4.698,15.145-4.648,30.883-4.648,46.528c0,15.5,0,31,0,46.5         c0,4.197,0,8.395,0,12.592c0,16.371,13.646,29.977,30,30c18.832,0.027,37.663,0.054,56.494,0.081         c47.635,0.067,95.27,0.135,142.905,0.203c63.149,0.09,126.299,0.18,189.448,0.27c65.376,0.093,130.751,0.187,196.127,0.279         c54.312,0.077,108.625,0.155,162.938,0.232c29.96,0.042,59.921,0.085,89.882,0.128c2.278,0.003,4.558,0.006,6.836,0.01         c16.354,0.023,30-13.664,30-30c0-24.03,0-48.061,0-72.091c0-22.362-5.581-44.533-17.704-63.479         c-15.407-24.077-39.411-41.813-66.982-49.392C870.035,61.837,859.787,60.645,849.852,60.564c-16.354-0.134-30,13.748-30,30         c0,16.455,13.648,29.866,30,30c3.727,0.03,7.42,0.27,11.119,0.725c-2.658-0.357-5.316-0.714-7.975-1.072         c7.618,1.064,14.965,3.071,22.062,6.038c-2.389-1.008-4.777-2.016-7.166-3.024c4.456,1.946,8.711,4.217,12.808,6.835         c1.107,0.708,2.182,1.466,3.255,2.225c4.375,3.092-6.081-4.854-1.907-1.5c2.043,1.642,3.969,3.423,5.85,5.246         c1.882,1.823,3.635,3.775,5.339,5.763c1.447,1.688,4.55,5.961-1.435-1.961c0.792,1.048,1.534,2.132,2.275,3.215         c2.986,4.361,5.451,9.059,7.566,13.895c-1.009-2.389-2.017-4.778-3.024-7.167c2.969,7.091,4.978,14.432,6.042,22.045         c-0.356-2.658-0.714-5.317-1.071-7.975c1.796,14.559,0.726,29.74,0.726,44.365c0,13.74,0,27.479,0,41.219c10-10,20-20,30-30         c-18.831-0.027-37.663-0.054-56.494-0.081c-47.635-0.068-95.27-0.135-142.904-0.203c-63.149-0.09-126.3-0.18-189.449-0.27         c-65.375-0.093-130.75-0.187-196.126-0.279c-54.312-0.077-108.625-0.155-162.938-0.232         c-29.961-0.042-59.921-0.085-89.882-0.128c-2.279-0.003-4.557-0.006-6.836-0.01c10,10,20,20,30,30         c0-13.542,0-27.083,0-40.625c0-14.427-1.046-29.395,0.726-43.757c-0.357,2.658-0.714,5.317-1.072,7.975         c1.065-7.613,3.074-14.954,6.042-22.045c-1.008,2.389-2.016,4.777-3.024,7.167c1.948-4.454,4.221-8.705,6.84-12.799         c0.708-1.107,1.467-2.18,2.226-3.252c3.095-4.373-4.854,6.081-1.497,1.91c1.644-2.041,3.426-3.966,5.25-5.845         c1.825-1.881,3.778-3.632,5.768-5.335c1.689-1.446,5.966-4.539-1.958,1.437c1.049-0.791,2.133-1.532,3.218-2.273         c4.364-2.984,9.066-5.447,13.905-7.56c-2.389,1.008-4.777,2.016-7.167,3.024c7.097-2.967,14.444-4.974,22.062-6.038         c-2.658,0.357-5.317,0.714-7.975,1.072c8.849-1.09,17.895-0.725,26.797-0.725c15.942,0,31.884,0,47.826,0         c53.79,0,107.58,0,161.37,0c65.715,0,131.43,0,197.145,0c56.901,0,113.802,0,170.703,0c27.348,0,54.694,0,82.042,0         c0.313,0,0.627,0,0.94,0c16.354,0,30-13.646,30-30S866.205,60.564,849.852,60.564z" fill="#ED1C24"/></g></g><line fill="#ED1C24" stroke="#ED1C24" stroke-miterlimit="10" stroke-width="62" x1="59.5" x2="964.5" y1="247.369" y2="248.631"/></g></g><g><g><g><path d="M353.632,450.199c0,5.826-4.727,10.55-10.558,10.55h-84.463c-5.831,0-10.558-4.724-10.558-10.55v-84.4        c0-5.827,4.727-10.55,10.558-10.55h84.463c5.831,0,10.558,4.724,10.558,10.55V450.199z" fill="#FFFFFF"/><g><path d="M323.632,450.199c-0.027,0.441-0.055,0.882-0.082,1.323c0.357-2.658,0.714-5.317,1.071-7.975         c-0.107,0.855-0.317,1.686-0.628,2.49c1.008-2.389,2.016-4.778,3.024-7.167c-1.336,2.661-0.424,1.701,2.737-2.878         c-3.076,3.896,6.524-3.934,1.995-1.857c2.389-1.008,4.777-2.016,7.166-3.024c-0.805,0.312-1.635,0.521-2.491,0.628         c2.658-0.357,5.317-0.714,7.975-1.071c-14.253,0.885-28.783,0.082-43.057,0.082c-14.604,0-29.472,0.823-44.055-0.082         c2.658,0.357,5.317,0.714,7.975,1.071c-0.856-0.107-1.687-0.316-2.491-0.628c2.389,1.008,4.777,2.016,7.166,3.024         c-2.661-1.335-1.703-0.423,2.876,2.738c-3.898-3.073,3.934,6.525,1.855,1.998c1.008,2.389,2.016,4.777,3.024,7.167         c-0.312-0.804-0.521-1.634-0.628-2.49c0.357,2.658,0.714,5.317,1.072,7.975c-0.886-14.242-0.083-28.762-0.083-43.025         c0-14.593-0.824-29.45,0.083-44.021c-0.357,2.658-0.715,5.317-1.072,7.975c0.107-0.856,0.317-1.686,0.628-2.49         c-1.008,2.389-2.016,4.777-3.024,7.167c1.336-2.661,0.424-1.702-2.737,2.878c3.075-3.896-6.524,3.934-1.995,1.857         c-2.389,1.008-4.777,2.016-7.166,3.024c0.805-0.312,1.635-0.521,2.491-0.628c-2.658,0.357-5.317,0.714-7.975,1.071         c14.253-0.885,28.783-0.082,43.057-0.082c14.604,0,29.472-0.823,44.055,0.082c-2.658-0.357-5.317-0.714-7.975-1.071         c0.856,0.107,1.687,0.316,2.491,0.628c-2.389-1.008-4.777-2.016-7.166-3.024c2.661,1.335,1.703,0.423-2.876-2.738         c3.898,3.073-3.934-6.524-1.855-1.997c-1.008-2.389-2.016-4.778-3.024-7.167c0.312,0.804,0.521,1.634,0.628,2.49         c-0.357-2.658-0.714-5.317-1.071-7.975c0.885,14.242,0.082,28.762,0.082,43.025         C323.632,421.733,323.632,435.966,323.632,450.199c0,16.354,13.646,30,30,30s30-13.646,30-30c0-24.859,0-49.719,0-74.578         c0-3.253,0-6.507,0-9.76c0-22.26-18.624-40.612-40.804-40.612c-10.86,0-21.719,0-32.579,0c-14.777,0-29.554,0-44.331,0         c-5.772,0-10.75,0.051-16.606,1.154c-18.764,3.532-31.258,22.037-31.258,40.359c0,26.112,0,52.224,0,78.335         c0,5.702,0.007,11.332,1.782,16.89c5.56,17.406,21.51,28.762,39.739,28.762c10.621,0,21.241,0,31.862,0         c13.936,0,27.873,0,41.809,0c3.194,0,6.389,0,9.583,0c7.506,0,15.021-2.069,21.419-5.986         c12.376-7.576,18.505-20.417,19.384-34.563c1.016-16.338-14.415-30-30-30C336.511,420.199,324.646,433.884,323.632,450.199z" fill="#FFFFFF"/></g></g><g><path d="M564.789,450.199c0,5.827-4.729,10.55-10.559,10.55h-84.462c-5.831,0-10.558-4.723-10.558-10.55v-84.4        c0-5.827,4.728-10.55,10.558-10.55h84.462c5.83,0,10.559,4.724,10.559,10.55V450.199z" fill="#FFFFFF"/><g><path d="M534.789,450.199c-0.027,0.441-0.055,0.882-0.082,1.323c0.357-2.658,0.714-5.316,1.071-7.975         c-0.107,0.856-0.316,1.686-0.629,2.49c1.009-2.389,2.017-4.777,3.024-7.166c-1.336,2.66-0.424,1.701,2.736-2.878         c-3.075,3.896,6.524-3.934,1.994-1.858c2.389-1.008,4.777-2.016,7.167-3.024c-0.805,0.312-1.636,0.521-2.492,0.628         c2.659-0.357,5.317-0.714,7.976-1.071c-14.253,0.884-28.782,0.082-43.057,0.082c-14.604,0-29.471,0.823-44.054-0.082         c2.658,0.357,5.317,0.714,7.975,1.071c-0.856-0.107-1.687-0.316-2.492-0.628c2.389,1.008,4.778,2.017,7.167,3.024         c-2.662-1.335-1.703-0.422,2.875,2.739c-3.898-3.072,3.934,6.525,1.855,1.998c1.008,2.389,2.016,4.777,3.024,7.166         c-0.312-0.804-0.521-1.634-0.628-2.49c0.357,2.659,0.714,5.317,1.072,7.975c-0.886-14.242-0.083-28.762-0.083-43.025         c0-14.593-0.824-29.45,0.083-44.021c-0.357,2.658-0.715,5.317-1.072,7.975c0.107-0.856,0.317-1.686,0.628-2.49         c-1.008,2.389-2.016,4.777-3.024,7.167c1.336-2.661,0.424-1.702-2.737,2.878c3.076-3.896-6.524,3.934-1.994,1.857         c-2.389,1.008-4.777,2.016-7.167,3.024c0.805-0.312,1.635-0.521,2.492-0.628c-2.658,0.357-5.317,0.714-7.975,1.071         c14.253-0.885,28.782-0.082,43.057-0.082c14.604,0,29.472-0.823,44.054,0.082c-2.658-0.357-5.316-0.714-7.976-1.071         c0.856,0.107,1.688,0.316,2.492,0.628c-2.39-1.008-4.778-2.016-7.167-3.024c2.662,1.335,1.703,0.423-2.875-2.738         c3.898,3.073-3.934-6.524-1.855-1.997c-1.008-2.389-2.016-4.778-3.024-7.167c0.312,0.804,0.521,1.634,0.629,2.49         c-0.357-2.658-0.714-5.317-1.071-7.975c0.886,14.242,0.082,28.762,0.082,43.025         C534.789,421.733,534.789,435.966,534.789,450.199c0,16.354,13.646,30,30,30s30-13.646,30-30c0-24.859,0-49.719,0-74.578         c0-3.253,0-6.507,0-9.76c0-22.26-18.625-40.612-40.805-40.612c-10.859,0-21.719,0-32.578,0c-14.777,0-29.554,0-44.331,0         c-5.772,0-10.75,0.051-16.606,1.154c-18.764,3.532-31.259,22.037-31.259,40.359c0,26.112,0,52.224,0,78.335         c0,5.702,0.007,11.332,1.782,16.891c5.561,17.406,21.511,28.761,39.739,28.761c10.62,0,21.241,0,31.861,0         c13.936,0,27.872,0,41.808,0c3.194,0,6.389,0,9.583,0c7.507,0,15.021-2.07,21.42-5.986         c12.376-7.575,18.505-20.418,19.385-34.564c1.016-16.338-14.415-30-30-30C547.668,420.199,535.804,433.884,534.789,450.199z" fill="#FFFFFF"/></g></g><g><path d="M775.947,450.199c0,5.827-4.729,10.55-10.559,10.55h-84.463c-5.832,0-10.559-4.723-10.559-10.55v-84.4        c0-5.827,4.727-10.55,10.559-10.55h84.463c5.83,0,10.559,4.724,10.559,10.55V450.199z" fill="#FFFFFF"/><g><path d="M745.947,450.199c-0.027,0.441-0.055,0.882-0.082,1.323c0.357-2.658,0.714-5.316,1.071-7.975         c-0.107,0.856-0.316,1.686-0.629,2.49c1.009-2.389,2.017-4.777,3.024-7.166c-1.336,2.66-0.424,1.701,2.736-2.878         c-3.075,3.896,6.524-3.934,1.994-1.858c2.389-1.008,4.777-2.016,7.167-3.024c-0.805,0.312-1.636,0.521-2.492,0.628         c2.659-0.357,5.317-0.714,7.976-1.071c-14.253,0.884-28.783,0.082-43.057,0.082c-14.604,0-29.473,0.823-44.055-0.082         c2.658,0.357,5.316,0.714,7.975,1.071c-0.856-0.107-1.687-0.316-2.491-0.628c2.389,1.008,4.777,2.017,7.166,3.024         c-2.662-1.335-1.703-0.422,2.875,2.739c-3.898-3.072,3.935,6.525,1.856,1.998c1.008,2.389,2.016,4.777,3.023,7.166         c-0.312-0.804-0.521-1.634-0.628-2.49c0.357,2.659,0.714,5.317,1.071,7.975c-0.885-14.242-0.082-28.761-0.082-43.025         c0-14.593-0.823-29.45,0.082-44.021c-0.357,2.658-0.714,5.317-1.071,7.975c0.107-0.856,0.316-1.686,0.628-2.49         c-1.008,2.389-2.016,4.777-3.023,7.167c1.336-2.661,0.424-1.702-2.737,2.878c3.075-3.896-6.524,3.934-1.994,1.857         c-2.389,1.008-4.777,2.016-7.166,3.024c0.805-0.312,1.635-0.521,2.491-0.628c-2.658,0.357-5.316,0.714-7.975,1.071         c14.253-0.884,28.782-0.082,43.057-0.082c14.604,0,29.472-0.823,44.055,0.082c-2.658-0.357-5.316-0.714-7.976-1.071         c0.856,0.107,1.688,0.316,2.492,0.628c-2.39-1.008-4.778-2.016-7.167-3.024c2.662,1.335,1.703,0.423-2.875-2.738         c3.898,3.073-3.934-6.524-1.855-1.997c-1.008-2.389-2.016-4.778-3.024-7.167c0.312,0.804,0.521,1.634,0.629,2.49         c-0.357-2.658-0.714-5.317-1.071-7.975c0.886,14.242,0.082,28.762,0.082,43.025         C745.947,421.733,745.947,435.966,745.947,450.199c0,16.354,13.646,30,30,30s30-13.646,30-30c0-24.859,0-49.719,0-74.578         c0-3.253,0-6.507,0-9.76c0-22.26-18.625-40.612-40.805-40.612c-10.859,0-21.72,0-32.579,0c-14.776,0-29.554,0-44.33,0         c-5.772,0-10.75,0.052-16.607,1.154c-18.765,3.531-31.259,22.037-31.259,40.359c0,26.112,0,52.224,0,78.335         c0,5.702,0.007,11.332,1.782,16.891c5.56,17.407,21.512,28.761,39.739,28.761c10.621,0,21.241,0,31.862,0         c13.936,0,27.872,0,41.809,0c3.194,0,6.389,0,9.583,0c7.507,0,15.021-2.07,21.42-5.986         c12.376-7.575,18.505-20.418,19.385-34.564c1.016-16.338-14.415-30-30-30C758.826,420.199,746.962,433.884,745.947,450.199z" fill="#FFFFFF"/></g></g></g><g><g><path d="M353.632,661.201c0,5.823-4.727,10.55-10.558,10.55h-84.463c-5.831,0-10.558-4.727-10.558-10.55v-84.4        c0-5.829,4.727-10.55,10.558-10.55h84.463c5.831,0,10.558,4.721,10.558,10.55V661.201z" fill="#FFFFFF"/><g><path d="M323.632,661.201c-0.027,0.441-0.055,0.882-0.082,1.322c0.357-2.658,0.714-5.316,1.071-7.975         c-0.107,0.855-0.317,1.685-0.628,2.489c1.008-2.39,2.016-4.778,3.024-7.167c-1.336,2.66-0.424,1.701,2.737-2.878         c-3.075,3.896,6.524-3.935,1.995-1.856c2.389-1.009,4.777-2.017,7.166-3.024c-0.805,0.312-1.635,0.521-2.491,0.628         c2.658-0.357,5.317-0.714,7.975-1.071c-14.253,0.885-28.783,0.082-43.057,0.082c-14.604,0-29.472,0.823-44.055-0.082         c2.658,0.357,5.317,0.714,7.975,1.071c-0.856-0.107-1.687-0.316-2.491-0.628c2.389,1.008,4.777,2.016,7.166,3.024         c-2.661-1.336-1.703-0.424,2.876,2.737c-3.898-3.073,3.934,6.524,1.855,1.997c1.008,2.389,2.016,4.777,3.024,7.167         c-0.312-0.805-0.521-1.634-0.628-2.489c0.357,2.658,0.714,5.316,1.072,7.975c-0.886-14.241-0.083-28.761-0.083-43.024         c0-14.594-0.823-29.45,0.083-44.022c-0.357,2.659-0.715,5.317-1.072,7.976c0.107-0.856,0.317-1.686,0.628-2.49         c-1.008,2.389-2.016,4.777-3.024,7.166c1.336-2.66,0.424-1.701-2.737,2.879c3.076-3.896-6.524,3.934-1.995,1.858         c-2.389,1.008-4.777,2.016-7.166,3.023c0.805-0.311,1.635-0.52,2.491-0.627c-2.658,0.357-5.317,0.714-7.975,1.071         c14.253-0.884,28.783-0.082,43.057-0.082c14.604,0,29.472-0.822,44.055,0.082c-2.658-0.357-5.317-0.714-7.975-1.071         c0.856,0.107,1.687,0.316,2.491,0.627c-2.389-1.008-4.777-2.016-7.166-3.023c2.662,1.335,1.703,0.422-2.876-2.739         c3.898,3.071-3.934-6.525-1.855-1.998c-1.008-2.389-2.016-4.777-3.024-7.166c0.312,0.805,0.521,1.634,0.628,2.49         c-0.357-2.658-0.714-5.316-1.071-7.976c0.885,14.243,0.082,28.763,0.082,43.026         C323.632,632.735,323.632,646.969,323.632,661.201c0,16.354,13.646,30,30,30s30-13.646,30-30c0-24.859,0-49.719,0-74.578         c0-3.254,0-6.507,0-9.76c0-22.261-18.623-40.612-40.804-40.612c-10.86,0-21.719,0-32.579,0c-14.777,0-29.554,0-44.331,0         c-5.772,0-10.75,0.052-16.606,1.153c-18.765,3.53-31.258,22.037-31.258,40.359c0,26.111,0,52.224,0,78.336         c0,5.7,0.006,11.33,1.782,16.889c5.561,17.405,21.509,28.763,39.739,28.763c10.621,0,21.241,0,31.862,0         c13.936,0,27.873,0,41.809,0c3.194,0,6.389,0,9.583,0c7.506,0,15.022-2.069,21.419-5.987         c12.375-7.577,18.504-20.415,19.384-34.562c1.016-16.338-14.415-30-30-30C336.51,631.201,324.646,644.886,323.632,661.201z" fill="#FFFFFF"/></g></g><g><path d="M564.789,661.201c0,5.825-4.729,10.55-10.559,10.55h-84.462c-5.831,0-10.558-4.725-10.558-10.55v-84.4        c0-5.827,4.728-10.55,10.558-10.55h84.462c5.83,0,10.559,4.723,10.559,10.55V661.201z" fill="#FFFFFF"/><g><path d="M534.789,661.201c-0.027,0.441-0.055,0.882-0.082,1.323c0.357-2.658,0.714-5.317,1.071-7.976         c-0.107,0.855-0.317,1.686-0.629,2.489c1.009-2.389,2.017-4.777,3.024-7.166c-1.336,2.66-0.424,1.701,2.736-2.878         c-3.075,3.896,6.524-3.935,1.994-1.857c2.389-1.008,4.777-2.017,7.167-3.024c-0.805,0.312-1.636,0.521-2.492,0.628         c2.659-0.357,5.317-0.714,7.976-1.071c-14.253,0.885-28.782,0.082-43.057,0.082c-14.604,0-29.471,0.823-44.054-0.082         c2.658,0.357,5.317,0.714,7.975,1.071c-0.856-0.107-1.687-0.316-2.492-0.628c2.389,1.008,4.778,2.017,7.167,3.024         c-2.661-1.336-1.703-0.423,2.875,2.738c-3.898-3.073,3.934,6.524,1.855,1.997c1.008,2.389,2.016,4.777,3.024,7.166         c-0.312-0.804-0.521-1.634-0.628-2.489c0.357,2.658,0.714,5.317,1.072,7.976c-0.886-14.242-0.083-28.762-0.083-43.025         c0-14.593-0.824-29.45,0.083-44.021c-0.357,2.658-0.715,5.316-1.072,7.975c0.107-0.855,0.317-1.686,0.628-2.489         c-1.008,2.389-2.016,4.777-3.024,7.166c1.336-2.66,0.424-1.701-2.737,2.878c3.076-3.896-6.524,3.935-1.994,1.858         c-2.389,1.008-4.777,2.016-7.167,3.024c0.805-0.312,1.635-0.521,2.492-0.628c-2.658,0.357-5.317,0.714-7.975,1.071         c14.253-0.885,28.782-0.082,43.057-0.082c14.604,0,29.471-0.823,44.054,0.082c-2.658-0.357-5.316-0.714-7.976-1.071         c0.856,0.107,1.688,0.316,2.492,0.628c-2.39-1.009-4.778-2.017-7.167-3.024c2.662,1.335,1.703,0.422-2.875-2.738         c3.898,3.072-3.934-6.525-1.855-1.998c-1.008-2.389-2.016-4.777-3.024-7.166c0.312,0.804,0.521,1.634,0.629,2.489         c-0.357-2.658-0.714-5.316-1.071-7.975c0.885,14.242,0.082,28.762,0.082,43.025         C534.789,632.735,534.789,646.969,534.789,661.201c0,16.354,13.646,30,30,30s30-13.646,30-30c0-24.859,0-49.719,0-74.578         c0-3.254,0-6.507,0-9.76c0-22.261-18.625-40.612-40.805-40.612c-10.859,0-21.719,0-32.578,0c-14.777,0-29.554,0-44.331,0         c-5.772,0-10.75,0.052-16.606,1.153c-18.764,3.531-31.259,22.037-31.259,40.359c0,26.111,0,52.224,0,78.336         c0,5.701,0.006,11.331,1.782,16.89c5.561,17.405,21.51,28.762,39.739,28.762c10.62,0,21.241,0,31.861,0         c13.936,0,27.872,0,41.808,0c3.194,0,6.389,0,9.583,0c7.507,0,15.021-2.069,21.42-5.986         c12.376-7.576,18.505-20.417,19.385-34.563c1.016-16.338-14.415-30-30-30C547.668,631.201,535.804,644.886,534.789,661.201z" fill="#FFFFFF"/></g></g><g><path d="M775.947,661.201c0,5.825-4.729,10.55-10.559,10.55h-84.463c-5.832,0-10.559-4.725-10.559-10.55v-84.4        c0-5.827,4.727-10.55,10.559-10.55h84.463c5.83,0,10.559,4.723,10.559,10.55V661.201z" fill="#FFFFFF"/><g><path d="M745.947,661.201c-0.027,0.441-0.055,0.882-0.082,1.323c0.357-2.658,0.714-5.317,1.071-7.976         c-0.107,0.855-0.317,1.686-0.629,2.489c1.009-2.389,2.017-4.777,3.024-7.166c-1.336,2.66-0.424,1.701,2.736-2.878         c-3.075,3.896,6.524-3.935,1.994-1.857c2.389-1.008,4.777-2.017,7.167-3.024c-0.805,0.312-1.636,0.521-2.492,0.628         c2.659-0.357,5.317-0.714,7.976-1.071c-14.253,0.885-28.783,0.082-43.057,0.082c-14.604,0-29.473,0.823-44.055-0.082         c2.658,0.357,5.316,0.714,7.975,1.071c-0.856-0.107-1.687-0.316-2.491-0.628c2.389,1.008,4.777,2.017,7.166,3.024         c-2.661-1.336-1.703-0.423,2.875,2.738c-3.898-3.073,3.935,6.524,1.856,1.997c1.008,2.389,2.016,4.777,3.023,7.166         c-0.312-0.804-0.521-1.634-0.628-2.489c0.357,2.658,0.714,5.317,1.071,7.976c-0.885-14.242-0.082-28.762-0.082-43.025         c0-14.593-0.823-29.45,0.082-44.021c-0.357,2.658-0.714,5.316-1.071,7.975c0.107-0.855,0.316-1.686,0.628-2.489         c-1.008,2.389-2.016,4.777-3.023,7.166c1.336-2.66,0.424-1.701-2.737,2.878c3.075-3.896-6.524,3.935-1.994,1.858         c-2.389,1.008-4.777,2.016-7.166,3.024c0.805-0.312,1.635-0.521,2.491-0.628c-2.658,0.357-5.316,0.714-7.975,1.071         c14.253-0.884,28.782-0.082,43.057-0.082c14.604,0,29.472-0.823,44.055,0.082c-2.658-0.357-5.316-0.714-7.976-1.071         c0.856,0.107,1.688,0.316,2.492,0.628c-2.39-1.009-4.778-2.017-7.167-3.024c2.662,1.335,1.703,0.422-2.875-2.738         c3.898,3.072-3.934-6.525-1.855-1.998c-1.008-2.389-2.016-4.777-3.024-7.166c0.312,0.804,0.521,1.634,0.629,2.489         c-0.357-2.658-0.714-5.316-1.071-7.975c0.885,14.242,0.082,28.762,0.082,43.025         C745.947,632.735,745.947,646.969,745.947,661.201c0,16.354,13.646,30,30,30s30-13.646,30-30c0-24.859,0-49.719,0-74.578         c0-3.254,0-6.507,0-9.76c0-22.261-18.625-40.612-40.805-40.612c-10.859,0-21.72,0-32.579,0c-14.776,0-29.554,0-44.33,0         c-5.772,0-10.75,0.052-16.607,1.153c-18.765,3.531-31.259,22.037-31.259,40.359c0,26.111,0,52.224,0,78.336         c0,5.701,0.007,11.331,1.782,16.89c5.561,17.406,21.511,28.762,39.739,28.762c10.621,0,21.241,0,31.862,0         c13.936,0,27.872,0,41.809,0c3.194,0,6.389,0,9.583,0c7.507,0,15.021-2.069,21.42-5.986         c12.376-7.576,18.505-20.417,19.385-34.563c1.016-16.338-14.415-30-30-30C758.826,631.201,746.962,644.886,745.947,661.201z" fill="#FFFFFF"/></g></g></g><g><g><path d="M353.632,872.201c0,5.824-4.727,10.55-10.558,10.55h-84.463c-5.831,0-10.558-4.726-10.558-10.55        v-84.399c0-5.83,4.727-10.551,10.558-10.551h84.463c5.831,0,10.558,4.721,10.558,10.551V872.201z" fill="#FFFFFF"/><g><path d="M323.632,872.201c-0.027,0.441-0.055,0.882-0.082,1.323c0.357-2.659,0.714-5.317,1.071-7.976         c-0.107,0.855-0.317,1.686-0.628,2.489c1.008-2.389,2.016-4.777,3.024-7.166c-1.336,2.66-0.424,1.701,2.737-2.879         c-3.075,3.897,6.524-3.934,1.995-1.856c2.389-1.009,4.777-2.017,7.166-3.024c-0.805,0.312-1.635,0.521-2.491,0.628         c2.658-0.357,5.317-0.714,7.975-1.071c-14.253,0.885-28.783,0.082-43.057,0.082c-14.604,0-29.472,0.823-44.055-0.082         c2.658,0.357,5.317,0.714,7.975,1.071c-0.856-0.107-1.687-0.316-2.491-0.628c2.389,1.008,4.777,2.016,7.166,3.024         c-2.661-1.336-1.703-0.423,2.876,2.737c-3.898-3.073,3.934,6.524,1.855,1.998c1.008,2.389,2.016,4.777,3.024,7.166         c-0.312-0.804-0.521-1.634-0.628-2.489c0.357,2.658,0.714,5.316,1.072,7.976c-0.886-14.242-0.083-28.762-0.083-43.024         c0-14.594-0.823-29.45,0.083-44.022c-0.357,2.658-0.715,5.317-1.072,7.976c0.107-0.856,0.317-1.687,0.628-2.491         c-1.008,2.39-2.016,4.778-3.024,7.167c1.336-2.661,0.424-1.702-2.737,2.878c3.075-3.896-6.524,3.934-1.995,1.858         c-2.389,1.008-4.777,2.016-7.166,3.023c0.805-0.311,1.635-0.52,2.491-0.627c-2.658,0.357-5.317,0.714-7.975,1.071         c14.253-0.884,28.783-0.082,43.057-0.082c14.604,0,29.472-0.822,44.055,0.082c-2.658-0.357-5.317-0.714-7.975-1.071         c0.856,0.107,1.687,0.316,2.491,0.627c-2.389-1.008-4.777-2.016-7.166-3.023c2.662,1.335,1.703,0.422-2.876-2.739         c3.898,3.072-3.934-6.524-1.855-1.997c-1.008-2.389-2.016-4.777-3.024-7.167c0.312,0.805,0.521,1.635,0.628,2.491         c-0.357-2.658-0.714-5.317-1.071-7.976c0.885,14.242,0.082,28.762,0.082,43.025         C323.632,843.735,323.632,857.969,323.632,872.201c0,16.354,13.646,30,30,30s30-13.646,30-30c0-24.859,0-49.718,0-74.577         c0-3.254,0-6.507,0-9.76c0-22.262-18.623-40.613-40.804-40.613c-10.86,0-21.719,0-32.579,0c-14.777,0-29.554,0-44.331,0         c-5.772,0-10.75,0.052-16.606,1.153c-18.766,3.53-31.258,22.038-31.258,40.36c0,26.111,0,52.223,0,78.335         c0,5.701,0.007,11.331,1.782,16.889c5.561,17.406,21.51,28.763,39.739,28.763c10.621,0,21.241,0,31.862,0         c13.936,0,27.873,0,41.809,0c3.194,0,6.389,0,9.583,0c7.506,0,15.021-2.069,21.419-5.986         c12.375-7.577,18.504-20.416,19.384-34.563c1.016-16.338-14.415-30-30-30C336.511,842.201,324.646,855.886,323.632,872.201z" fill="#FFFFFF"/></g></g><g><path d="M564.789,872.201c0,5.825-4.729,10.55-10.559,10.55h-84.462c-5.831,0-10.558-4.725-10.558-10.55        v-84.399c0-5.828,4.728-10.551,10.558-10.551h84.462c5.83,0,10.559,4.723,10.559,10.551V872.201z" fill="#FFFFFF"/><g><path d="M534.789,872.201c-0.027,0.441-0.055,0.882-0.082,1.323c0.357-2.658,0.714-5.317,1.071-7.976         c-0.107,0.855-0.317,1.686-0.629,2.489c1.009-2.389,2.017-4.777,3.024-7.166c-1.336,2.66-0.424,1.701,2.736-2.878         c-3.075,3.896,6.524-3.935,1.994-1.857c2.389-1.008,4.777-2.017,7.167-3.024c-0.805,0.312-1.636,0.521-2.492,0.628         c2.659-0.357,5.317-0.714,7.976-1.071c-14.253,0.885-28.782,0.082-43.057,0.082c-14.604,0-29.471,0.823-44.054-0.082         c2.658,0.357,5.317,0.714,7.975,1.071c-0.856-0.107-1.687-0.316-2.492-0.628c2.389,1.008,4.778,2.017,7.167,3.024         c-2.661-1.336-1.703-0.423,2.875,2.738c-3.898-3.073,3.934,6.524,1.855,1.997c1.008,2.389,2.016,4.777,3.024,7.166         c-0.312-0.804-0.521-1.634-0.628-2.489c0.357,2.658,0.714,5.317,1.072,7.976c-0.886-14.242-0.083-28.762-0.083-43.024         c0-14.594-0.823-29.45,0.083-44.021c-0.357,2.658-0.715,5.316-1.072,7.975c0.107-0.855,0.317-1.686,0.628-2.49         c-1.008,2.389-2.016,4.777-3.024,7.167c1.336-2.661,0.424-1.702-2.737,2.878c3.076-3.896-6.524,3.934-1.994,1.857         c-2.389,1.008-4.777,2.016-7.167,3.024c0.805-0.312,1.635-0.521,2.492-0.628c-2.658,0.357-5.317,0.714-7.975,1.071         c14.253-0.885,28.782-0.082,43.057-0.082c14.604,0,29.471-0.823,44.054,0.082c-2.658-0.357-5.316-0.714-7.976-1.071         c0.856,0.107,1.688,0.316,2.492,0.628c-2.39-1.009-4.778-2.017-7.167-3.024c2.662,1.335,1.703,0.422-2.875-2.738         c3.898,3.072-3.934-6.525-1.855-1.997c-1.008-2.39-2.016-4.778-3.024-7.167c0.312,0.805,0.521,1.635,0.629,2.49         c-0.357-2.658-0.714-5.316-1.071-7.975c0.885,14.241,0.082,28.762,0.082,43.024         C534.789,843.735,534.789,857.969,534.789,872.201c0,16.354,13.646,30,30,30s30-13.646,30-30c0-24.859,0-49.718,0-74.577         c0-3.254,0-6.507,0-9.76c0-22.261-18.625-40.613-40.805-40.613c-10.859,0-21.719,0-32.578,0c-14.777,0-29.554,0-44.331,0         c-5.772,0-10.75,0.052-16.606,1.153c-18.765,3.531-31.259,22.037-31.259,40.36c0,26.111,0,52.223,0,78.335         c0,5.701,0.006,11.331,1.782,16.89c5.561,17.405,21.51,28.762,39.739,28.762c10.62,0,21.241,0,31.861,0         c13.936,0,27.872,0,41.808,0c3.194,0,6.389,0,9.583,0c7.507,0,15.021-2.069,21.42-5.986         c12.376-7.576,18.505-20.417,19.385-34.563c1.016-16.338-14.415-30-30-30C547.668,842.201,535.804,855.886,534.789,872.201z" fill="#FFFFFF"/></g></g><g><path d="M775.947,872.201c0,5.825-4.729,10.55-10.559,10.55h-84.463c-5.832,0-10.559-4.725-10.559-10.55        v-84.399c0-5.828,4.727-10.551,10.559-10.551h84.463c5.83,0,10.559,4.723,10.559,10.551V872.201z" fill="#FFFFFF"/><g><path d="M745.947,872.201c-0.027,0.441-0.055,0.882-0.082,1.323c0.357-2.658,0.714-5.317,1.071-7.976         c-0.107,0.855-0.317,1.686-0.629,2.489c1.009-2.389,2.017-4.777,3.024-7.166c-1.336,2.66-0.424,1.701,2.736-2.878         c-3.075,3.896,6.524-3.935,1.994-1.857c2.389-1.008,4.777-2.017,7.167-3.024c-0.805,0.312-1.636,0.521-2.492,0.628         c2.659-0.357,5.317-0.714,7.976-1.071c-14.253,0.885-28.783,0.082-43.057,0.082c-14.604,0-29.473,0.823-44.055-0.082         c2.658,0.357,5.316,0.714,7.975,1.071c-0.856-0.107-1.687-0.316-2.491-0.628c2.389,1.008,4.777,2.017,7.166,3.024         c-2.661-1.336-1.703-0.423,2.875,2.738c-3.898-3.073,3.935,6.524,1.856,1.997c1.008,2.389,2.016,4.777,3.023,7.166         c-0.312-0.804-0.521-1.634-0.628-2.489c0.357,2.658,0.714,5.317,1.071,7.976c-0.885-14.242-0.082-28.762-0.082-43.024         c0-14.594-0.823-29.45,0.082-44.021c-0.357,2.658-0.714,5.316-1.071,7.975c0.107-0.855,0.316-1.686,0.628-2.49         c-1.008,2.389-2.016,4.777-3.023,7.167c1.336-2.661,0.424-1.702-2.737,2.878c3.075-3.896-6.524,3.934-1.994,1.857         c-2.389,1.008-4.777,2.016-7.166,3.024c0.805-0.312,1.635-0.521,2.491-0.628c-2.658,0.357-5.316,0.714-7.975,1.071         c14.253-0.884,28.782-0.082,43.057-0.082c14.604,0,29.472-0.823,44.055,0.082c-2.658-0.357-5.316-0.714-7.976-1.071         c0.856,0.107,1.688,0.316,2.492,0.628c-2.39-1.009-4.778-2.017-7.167-3.024c2.662,1.335,1.703,0.422-2.875-2.738         c3.898,3.072-3.934-6.525-1.855-1.997c-1.008-2.39-2.016-4.778-3.024-7.167c0.312,0.805,0.521,1.635,0.629,2.49         c-0.357-2.658-0.714-5.316-1.071-7.975c0.885,14.241,0.082,28.762,0.082,43.024         C745.947,843.735,745.947,857.969,745.947,872.201c0,16.354,13.646,30,30,30s30-13.646,30-30c0-24.859,0-49.718,0-74.577         c0-3.254,0-6.507,0-9.76c0-22.261-18.625-40.613-40.805-40.613c-10.859,0-21.72,0-32.579,0c-14.776,0-29.554,0-44.33,0         c-5.772,0-10.75,0.052-16.607,1.153c-18.765,3.531-31.259,22.037-31.259,40.36c0,26.111,0,52.223,0,78.335         c0,5.701,0.007,11.331,1.782,16.89c5.561,17.406,21.511,28.762,39.739,28.762c10.621,0,21.241,0,31.862,0         c13.936,0,27.872,0,41.809,0c3.194,0,6.389,0,9.583,0c7.507,0,15.021-2.069,21.42-5.986         c12.376-7.576,18.505-20.417,19.385-34.563c1.016-16.338-14.415-30-30-30C758.826,842.201,746.962,855.886,745.947,872.201z" fill="#FFFFFF"/></g></g></g></g></g></g></svg>